<svg width="24" height="24" viewBox="0 0 24 24" fill="none" xmlns="http://www.w3.org/2000/svg">
              <path opacity=".4"
                            d="M16.076 2h3.386A2.549 2.549 0 0 1 22 4.56v3.415a2.549 2.549 0 0 1-2.538 2.56h-3.386a2.549 2.549 0 0 1-2.539-2.56V4.56A2.549 2.549 0 0 1 16.076 2Z"
                            fill="#fff" />
              <path d="M7.924 13.466a2.549 2.549 0 0 1 2.539 2.56v3.414A2.55 2.55 0 0 1 7.924 22H4.54A2.55 2.55 0 0 1 2 19.44v-3.415a2.549 2.549 0 0 1 2.539-2.56h3.385Zm11.538 0A2.549 2.549 0 0 1 22 16.026v3.414A2.55 2.55 0 0 1 19.462 22h-3.386a2.55 2.55 0 0 1-2.539-2.56v-3.415a2.549 2.549 0 0 1 2.539-2.56h3.386ZM7.924 2a2.549 2.549 0 0 1 2.539 2.56v3.415a2.549 2.549 0 0 1-2.539 2.56H4.54A2.549 2.549 0 0 1 2 7.974V4.56A2.549 2.549 0 0 1 4.539 2h3.385Z"
                            fill="#fff" />
</svg>