<svg width="16" height="16" viewBox="0 0 16 16" fill="none" xmlns="http://www.w3.org/2000/svg">
              <g clip-path="url(#a)">
                            <g clip-path="url(#b)">
                                          <path
                                                        d="M16 8.048a8 8 0 1 0-9.25 7.9V10.36H4.719V8.048H6.75V6.285a2.822 2.822 0 0 1 3.021-3.112c.6.008 1.199.06 1.791.156v1.97h-1.008a1.155 1.155 0 0 0-1.3 1.25v1.5h2.219l-.355 2.313H9.25v5.59A8 8 0 0 0 16 8.049Z"
                                                        fill="#246BFD" />
                            </g>
              </g>
              <defs>
                            <clipPath id="a">
                                          <path fill="#fff" d="M0 0h16v16H0z" />
                            </clipPath>
                            <clipPath id="b">
                                          <path fill="#fff" d="M0 0h16v16H0z" />
                            </clipPath>
              </defs>
</svg>