<svg width="16" height="16" viewBox="0 0 16 16" fill="none" xmlns="http://www.w3.org/2000/svg">
              <g clip-path="url(#a)">
                            <defs>
                                          <clipPath id="a">
                                                        <path fill="#fff" d="M0 0h16v16H0z" />
                                          </clipPath>
                            </defs>
                            <path d="M13 10c-.6 0-1.1.2-1.6.5L9 8.5V5.8c1.2-.4 2-1.5 2-2.8 0-1.7-1.3-3-3-3S5 1.3 5 3c0 1.3.8 2.4 2 2.8v2.7l-2.4 1.9c-.5-.2-1-.4-1.6-.4-1.7 0-3 1.3-3 3s1.3 3 3 3 3-1.3 3-3c0-.3-.1-.7-.2-1L8 10.3l2.2 1.7c-.1.3-.2.6-.2 1 0 1.7 1.3 3 3 3s3-1.3 3-3-1.3-3-3-3ZM3 14c-.6 0-1-.4-1-1s.4-1 1-1 1 .4 1 1-.4 1-1 1ZM8 4c-.6 0-1-.4-1-1s.4-1 1-1 1 .4 1 1-.4 1-1 1Zm5 10c-.6 0-1-.4-1-1s.4-1 1-1 1 .4 1 1-.4 1-1 1Z"
                                          fill="#fff" />
              </g>
</svg>