<svg width="32" height="32" viewBox="0 0 32 32" fill="none" xmlns="http://www.w3.org/2000/svg">
  <path d="M14.222 1.026a3.556 3.556 0 0 1 3.556 0l10.3 5.948a3.556 3.556 0 0 1 1.778 3.079v11.894c0 1.27-.677 2.444-1.777 3.08l-10.301 5.947a3.556 3.556 0 0 1-3.556 0l-10.3-5.948a3.555 3.555 0 0 1-1.778-3.079V10.053c0-1.27.677-2.444 1.777-3.08l10.301-5.947Z" fill="#246BFD"/>
  <defs>
    <clipPath id="a">
      <path fill="#fff" d="M9.333 9.334h13.333v13.333H9.333z"/>
    </clipPath>
  </defs>
  <g clip-path="url(#a)" stroke="#fff" stroke-width="1.111" stroke-miterlimit="10" stroke-linecap="round" stroke-linejoin="round">
    <path d="M14.889 10.445v10"/>
    <path opacity=".5" d="M12.667 13.778v4.445"/>
    <path opacity=".3" d="M10.445 15.445v1.11"/>
    <path d="M17.111 11.556v10"/>
    <path opacity=".3" d="M19.334 13.778v4.445m2.222-2.778v1.11"/>
  </g>
</svg>
