<svg width="24" height="24" viewBox="0 0 24 24" fill="none" xmlns="http://www.w3.org/2000/svg">
              <path
                            d="M10.6 19.306c4.748 0 8.598-3.874 8.598-8.653S15.348 2 10.6 2C5.85 2 2 5.874 2 10.653c0 4.78 3.85 8.653 8.6 8.653Z"
                            fill="#fff" />
              <path opacity=".4"
                            d="M20.674 21.955a1.32 1.32 0 0 1-.889-.384l-2.036-2.38a1.088 1.088 0 0 1-.08-1.522.975.975 0 0 1 1.387 0l2.561 2.05c.37.377.483.937.29 1.43a1.335 1.335 0 0 1-1.18.851l-.053-.045Z"
                            fill="#fff" />
</svg>