<svg width="16" height="16" viewBox="0 0 16 16" fill="none" xmlns="http://www.w3.org/2000/svg">
  <path d="M6.115 7.938a2.47 2.47 0 1 0 0-4.938 2.47 2.47 0 0 0 0 4.938Z" stroke="#fff" stroke-width="2" stroke-linecap="round" stroke-linejoin="round"/>
  <path d="M11.877 7.116a1.646 1.646 0 1 0 0-3.293 1.646 1.646 0 0 0 0 3.293Z" stroke="#94F0F0" stroke-width="2" stroke-linecap="round" stroke-linejoin="round"/>
  <path d="M6.115 9.584A4.116 4.116 0 0 0 2 13.7h8.23a4.116 4.116 0 0 0-4.115-4.116v0Z" stroke="#fff" stroke-width="2" stroke-linecap="round" stroke-linejoin="round"/>
  <path d="M10.511 9.173a2.47 2.47 0 0 1 3.835 2.058v.823h-2.47" stroke="#94F0F0" stroke-width="2" stroke-linecap="round" stroke-linejoin="round"/>
</svg>
