<svg width="16" height="16" viewBox="0 0 16 16" fill="none" xmlns="http://www.w3.org/2000/svg">
              <circle cx="8" cy="8" r="8" fill="#262A34" />
              <defs>
                            <clipPath id="a">
                                          <path fill="#fff" d="M2.667 2.667h10.667v10.667H2.667z" />
                            </clipPath>
              </defs>
              <g clip-path="url(#a)" fill="#5E6272">
                            <path
                                          d="m12.4 6.4-5.467 5.467c.334.066.734.133 1.067.133 2.4 0 4.267-2.067 5.067-3.267a1.3 1.3 0 0 0 0-1.533c-.134-.2-.4-.467-.667-.8Zm-.2-3.533-1.8 1.8C9.667 4.267 8.867 4 8 4 5.6 4 3.733 6.067 2.933 7.267c-.333.466-.333 1.066 0 1.466.334.534.934 1.2 1.6 1.8L2.867 12.2a.644.644 0 0 0 0 .933c.133.134.266.2.466.2s.334-.066.467-.2L13.133 3.8a.644.644 0 0 0 0-.933.644.644 0 0 0-.933 0Zm-6 6A1.845 1.845 0 0 1 6 8c0-1.133.867-2 2-2 .333 0 .6.067.867.2L6.2 8.867Z" />
              </g>
</svg>