<svg width="48" height="48" viewBox="0 0 48 48" fill="none" xmlns="http://www.w3.org/2000/svg">
              <circle cx="24" cy="24" r="24" fill="#A06AF9" />
              <path fill-rule="evenodd" clip-rule="evenodd"
                            d="M6.986 40.927a18.11 18.11 0 0 1 8.87-10.159 13.125 13.125 0 0 0 16.287 0 18.11 18.11 0 0 1 8.87 10.16A23.925 23.925 0 0 1 24 48a23.926 23.926 0 0 1-17.014-7.073Z"
                            fill="#fff" />
              <path
                            d="M24 9.6c-5.954 0-10.8 4.846-10.8 10.8 0 5.955 4.846 10.8 10.8 10.8 5.954 0 10.8-4.845 10.8-10.8 0-5.954-4.846-10.8-10.8-10.8Z"
                            fill="#fff" />
</svg>